<svg xmlns="http://www.w3.org/2000/svg" version="1.1" xmlns:xlink="http://www.w3.org/1999/xlink" xmlns:svgjs="http://svgjs.dev/svgjs" width="128" height="128" viewBox="0 0 128 128"><g transform="matrix(0.8046875,0,0,0.8046875,12.760752631578946,12.758997031128985)"><svg viewBox="0 0 95 95" data-background-color="#000000" preserveAspectRatio="xMidYMid meet" height="128" width="128" xmlns="http://www.w3.org/2000/svg" xmlns:xlink="http://www.w3.org/1999/xlink"><g id="tight-bounds" transform="matrix(1,0,0,1,-0.24049999999999727,-0.23888075686653565)"><svg viewBox="0 0 95.481 95.47776151373307" height="95.47776151373307" width="95.481"><g><svg viewBox="0 0 95.481 95.47776151373307" height="95.47776151373307" width="95.481"><g><svg viewBox="0 0 95.481 95.47776151373307" height="95.47776151373307" width="95.481"><g id="textblocktransform"><svg viewBox="0 0 95.481 95.47776151373307" height="95.47776151373307" width="95.481" id="textblock"><g><svg viewBox="0 0 95.481 95.47776151373307" height="95.47776151373307" width="95.481"><g><svg viewBox="0 0 95.481 95.47776151373307" height="95.47776151373307" width="95.481"><g><svg xmlns="http://www.w3.org/2000/svg" xmlns:xlink="http://www.w3.org/1999/xlink" version="1.1" x="0" y="0" viewBox="2 2.0010000000000003 44.000492391055246 43.999" enable-background="new 0 0 48 48" xml:space="preserve" height="95.47776151373307" width="95.481" class="icon-icon-0" data-fill-palette-color="accent" id="icon-0"><g fill="#ffffff" data-fill-palette-color="accent"><path d="M20 20.5c0-1.379-1.122-2.5-2.5-2.5S15 19.121 15 20.5s1.122 2.5 2.5 2.5S20 21.879 20 20.5zM16.5 20.5c0-0.553 0.448-1 1-1s1 0.447 1 1-0.448 1-1 1S16.5 21.053 16.5 20.5zM24 24.333L23 23h2L24 24.333zM30.5 23c1.378 0 2.5-1.121 2.5-2.5S31.878 18 30.5 18 28 19.121 28 20.5 29.122 23 30.5 23zM30.5 19.5c0.552 0 1 0.447 1 1s-0.448 1-1 1-1-0.447-1-1S29.948 19.5 30.5 19.5zM45.13 43.449c-1.923-0.253-3.434-1.666-3.856-3.449H8c-0.552 0-1-0.447-1-1s0.448-1 1-1h33.273c0.423-1.783 1.934-3.196 3.856-3.449 0.41-0.054 0.744-0.354 0.842-0.755 0.098-0.4-0.062-0.821-0.4-1.057C44.887 32.263 44.051 32 43.217 32h-12.32C34.556 29.697 37 25.634 37 21v-4c0-0.553-0.448-1-1-1h-1.494l0.388-1.635 5.731-4.584c0.281-0.225 0.419-0.583 0.363-0.938-0.057-0.355-0.3-0.652-0.637-0.779l-16-6c-0.227-0.084-0.476-0.084-0.702 0l-16 6C7.312 8.19 7.069 8.487 7.012 8.843 6.956 9.198 7.094 9.557 7.375 9.781l5.731 4.584L13.494 16H12c-0.552 0-1 0.447-1 1v4c0 4.634 2.444 8.697 6.104 11H6.073C3.827 32 2 33.794 2 36v6c0 2.206 1.827 4 4.073 4h37.144c0.834 0 1.67-0.263 2.355-0.739 0.338-0.235 0.498-0.656 0.4-1.057C45.874 43.803 45.54 43.503 45.13 43.449zM13 20.5c0-2.481 2.019-4.5 4.5-4.5s4.5 2.019 4.5 4.5c0 0.171-0.032 0.334-0.051 0.5h4.102C26.032 20.834 26 20.671 26 20.5c0-2.481 2.019-4.5 4.5-4.5s4.5 2.019 4.5 4.5S32.981 25 30.5 25c-1.338 0-2.529-0.599-3.354-1.529L24.8 26.6C24.611 26.852 24.315 27 24 27s-0.611-0.148-0.8-0.4l-2.347-3.129C20.029 24.401 18.838 25 17.5 25 15.019 25 13 22.981 13 20.5z" fill="#ffffff" data-fill-palette-color="accent"></path></g></svg></g></svg></g></svg></g></svg></g></svg></g></svg></g><defs></defs></svg><rect width="95.481" height="95.47776151373307" fill="none" stroke="none" visibility="hidden"></rect></g></svg></g></svg>