<svg xmlns="http://www.w3.org/2000/svg" version="1.1" xmlns:xlink="http://www.w3.org/1999/xlink" xmlns:svgjs="http://svgjs.dev/svgjs" width="1500" height="1500" viewBox="0 0 1500 1500"><rect width="1500" height="1500" fill="#343a40"></rect><g transform="matrix(0.6666666666666666,0,0,0.6666666666666666,249.39393939393938,640.2517910361034)"><svg viewBox="0 0 396 87" data-background-color="#343a40" preserveAspectRatio="xMidYMid meet" height="329" width="1500" xmlns="http://www.w3.org/2000/svg" xmlns:xlink="http://www.w3.org/1999/xlink"><g id="tight-bounds" transform="matrix(1,0,0,1,0.2400000000000091,0.03234428507147413)"><svg viewBox="0 0 395.52 86.93496173584468" height="86.93496173584468" width="395.52"><g><svg viewBox="0 0 522.4839836991736 114.84153805238509" height="86.93496173584468" width="395.52"><g transform="matrix(1,0,0,1,126.96398369917355,15.871732104200838)"><svg viewBox="0 0 395.52000000000004 83.09807384398341" height="83.09807384398341" width="395.52000000000004"><g id="textblocktransform"><svg viewBox="0 0 395.52000000000004 83.09807384398341" height="83.09807384398341" width="395.52000000000004" id="textblock"><g><svg viewBox="0 0 395.52000000000004 51.349758750522945" height="51.349758750522945" width="395.52000000000004"><g transform="matrix(1,0,0,1,0,0)"><svg width="395.52000000000004" viewBox="1.1 -35.05 358.52 46.55" height="51.349758750522945" data-palette-color="#ffffff"><path d="M13.55 0L1.1 0 1.1-0.5 2.15-0.9Q3.15-1.25 3.45-1.85 3.75-2.45 3.75-3.4L3.75-3.4 3.75-29.55Q3.75-30.55 3.45-31.15 3.15-31.75 2.15-32.1L2.15-32.1 1.1-32.5 1.1-33 13.55-33 13.55-32.5 12.45-32.05Q11.6-31.75 11.3-31.15 11-30.55 11-29.5L11-29.5 11-3.35Q11-2.35 11.33-1.8 11.65-1.25 12.6-0.9L12.6-0.9 13.55-0.5 13.55 0ZM32.25 0L19.55 0 19.55-0.5 20.2-0.7Q21.2-1 21.25-1.7 21.3-2.4 20.65-3.3L20.65-3.3 11.05-16.95 23.7-29.85Q24.4-30.55 24.48-31.2 24.55-31.85 23.5-32.2L23.5-32.2 22.65-32.5 22.65-33 29.95-33 29.95-32.5 28.65-32.1Q27.55-31.75 26.9-31.25 26.25-30.75 25.4-29.9L25.4-29.9 16.45-20.75 28.2-3.6Q28.95-2.5 29.63-1.8 30.3-1.1 31.55-0.7L31.55-0.7 32.25-0.5 32.25 0ZM45.45 0L33.7 0 33.7-0.5 34.4-0.7Q36.15-1.2 36.15-3.15L36.15-3.15 36.15-18.8Q36.15-19.9 35.8-20.43 35.45-20.95 34.45-21.15L34.45-21.15 33.7-21.35 33.7-21.85 42.25-24.75 42.75-24.25 43.15-21.25Q44.9-22.8 47.1-23.8 49.3-24.8 51.45-24.8L51.45-24.8Q54.75-24.8 56.52-23 58.3-21.2 58.3-17.5L58.3-17.5 58.3-3.1Q58.3-1.15 60.2-0.65L60.2-0.65 60.65-0.5 60.65 0 48.85 0 48.85-0.5 49.5-0.7Q51.25-1.25 51.25-3.15L51.25-3.15 51.25-19.1Q51.25-22.3 48.05-22.3L48.05-22.3Q45.85-22.3 43.25-20.1L43.25-20.1 43.25-3.1Q43.25-1.15 45-0.65L45-0.65 45.45-0.5 45.45 0ZM75.25 0.75L75.25 0.75Q71.45 0.75 68.65-0.83 65.85-2.4 64.32-5.3 62.8-8.2 62.8-12.1L62.8-12.1Q62.8-16 64.42-18.85 66.05-21.7 68.87-23.25 71.7-24.8 75.25-24.8L75.25-24.8Q78.8-24.8 81.6-23.28 84.4-21.75 86.02-18.9 87.65-16.05 87.65-12.1L87.65-12.1Q87.65-8.15 86.12-5.28 84.6-2.4 81.82-0.83 79.05 0.75 75.25 0.75ZM75.25-0.25L75.25-0.25Q77-0.25 78.05-1.25 79.1-2.25 79.57-4.8 80.05-7.35 80.05-12L80.05-12Q80.05-16.7 79.57-19.25 79.1-21.8 78.05-22.8 77-23.8 75.25-23.8L75.25-23.8Q73.5-23.8 72.42-22.8 71.35-21.8 70.87-19.25 70.4-16.7 70.4-12L70.4-12Q70.4-7.35 70.87-4.8 71.35-2.25 72.42-1.25 73.5-0.25 75.25-0.25ZM102.99 0.15L100.09 0.15 92.39-21Q91.84-22.6 90.19-23.25L90.19-23.25 89.34-23.55 89.34-24.05 101.59-24.05 101.59-23.55 100.84-23.35Q98.89-22.75 99.54-20.95L99.54-20.95 104.19-6.8 108.34-17.8 107.39-20.65Q107.04-21.75 106.67-22.33 106.29-22.9 105.69-23.15L105.69-23.15 104.84-23.55 104.84-24.05 115.19-24.05 115.19-23.55 114.49-23.25Q113.74-22.95 113.59-22.45 113.44-21.95 113.79-20.95L113.79-20.95 118.39-7.05 123.14-20.85Q123.84-22.75 122.39-23.25L122.39-23.25 121.29-23.55 121.29-24.05 127.29-24.05 127.29-23.55 126.09-23.2Q125.24-22.95 124.87-22.43 124.49-21.9 124.19-21L124.19-21 116.99 0.15 114.44 0.15 108.89-16.2 102.99 0.15ZM140.99 0L129.04 0 129.04-0.5 129.64-0.7Q131.44-1.3 131.44-3.2L131.44-3.2 131.44-29.95Q131.44-30.95 131.04-31.48 130.64-32 129.64-32.25L129.64-32.25 128.99-32.4 128.99-32.9 138.14-35.05 138.74-34.6 138.54-27.6 138.54-10.5Q138.54-8.65 138.57-6.83 138.59-5 138.59-3.2L138.59-3.2Q138.59-2.2 138.99-1.58 139.39-0.95 140.34-0.65L140.34-0.65 140.99-0.5 140.99 0ZM155.74-24.8L155.74-24.8Q158.99-24.8 161.29-23.48 163.59-22.15 164.81-19.88 166.04-17.6 166.04-14.7L166.04-14.7Q166.04-14.15 165.99-13.58 165.94-13 165.79-12.55L165.79-12.55 150.89-12.55Q150.94-7.15 152.81-4.78 154.69-2.4 158.39-2.4L158.39-2.4Q160.89-2.4 162.44-3.2 163.99-4 165.34-5.55L165.34-5.55 165.84-5.1Q164.29-2.35 161.71-0.8 159.14 0.75 155.54 0.75L155.54 0.75Q151.99 0.75 149.24-0.78 146.49-2.3 144.94-5.15 143.39-8 143.39-11.95L143.39-11.95Q143.39-16.05 145.19-18.93 146.99-21.8 149.81-23.3 152.64-24.8 155.74-24.8ZM155.59-23.8L155.59-23.8Q154.14-23.8 153.11-22.93 152.09-22.05 151.51-19.83 150.94-17.6 150.89-13.55L150.89-13.55 159.44-13.55Q159.94-19 159.04-21.4 158.14-23.8 155.59-23.8ZM179.14 0.75L179.14 0.75Q176.19 0.75 173.84-0.58 171.49-1.9 170.11-4.67 168.74-7.45 168.74-11.8L168.74-11.8Q168.74-16.2 170.29-19.07 171.84-21.95 174.39-23.38 176.94-24.8 179.94-24.8L179.94-24.8Q181.69-24.8 183.29-24.45 184.89-24.1 186.14-23.4L186.14-23.4 186.14-29.9Q186.14-30.95 185.81-31.45 185.49-31.95 184.44-32.15L184.44-32.15 183.49-32.35 183.49-32.85 192.59-35.05 193.14-34.6 192.94-27.6 192.94-3.15Q192.94-2.15 193.29-1.53 193.64-0.9 194.59-0.65L194.59-0.65 195.04-0.5 195.04 0 186.49 0.55 186.04-1.25Q184.69-0.35 182.96 0.2 181.24 0.75 179.14 0.75ZM182.04-1.1L182.04-1.1Q184.14-1.1 185.89-2.35L185.89-2.35 185.89-22.2Q184.04-23.4 182.09-23.4L182.09-23.4Q179.69-23.4 177.99-20.63 176.29-17.85 176.29-11.9L176.29-11.9Q176.29-5.95 177.89-3.53 179.49-1.1 182.04-1.1ZM208.13-8.65L208.13-8.65Q204.68-8.65 202.28-9.8L202.28-9.8 202.28-8.1Q202.28-6.55 203.83-6.25L203.83-6.25 213.23-4.5Q215.58-4.05 217.48-3.33 219.38-2.6 220.53-1.28 221.68 0.05 221.68 2.35L221.68 2.35Q221.68 4.8 220.08 6.88 218.48 8.95 215.36 10.23 212.23 11.5 207.58 11.5L207.58 11.5Q203.58 11.5 201.23 10.68 198.88 9.85 197.91 8.55 196.93 7.25 196.93 5.8L196.93 5.8Q196.93 4 198.16 2.18 199.38 0.35 201.18-0.75L201.18-0.75Q199.63-1.35 198.93-2.3 198.23-3.25 198.23-4.35L198.23-4.35Q198.23-5.35 198.76-6.23 199.28-7.1 200.03-8L200.03-8 201.68-10.1Q198.03-12.2 198.03-16.7L198.03-16.7Q198.03-20.3 200.61-22.55 203.18-24.8 208.18-24.8L208.18-24.8Q210.73-24.8 212.66-24.2 214.58-23.6 215.83-22.5L215.83-22.5Q217.43-22.75 218.86-23.33 220.28-23.9 221.43-24.9L221.43-24.9 222.13-24.4 222.13-21.85 216.48-21.85Q218.28-19.85 218.28-16.7L218.28-16.7Q218.28-13.2 215.71-10.93 213.13-8.65 208.13-8.65ZM208.08-9.65L208.08-9.65Q210.08-9.65 211.01-11.3 211.93-12.95 211.93-16.8L211.93-16.8Q211.93-20.65 211.01-22.23 210.08-23.8 208.18-23.8L208.18-23.8Q206.33-23.8 205.38-22.18 204.43-20.55 204.43-16.7L204.43-16.7Q204.43-12.85 205.31-11.25 206.18-9.65 208.08-9.65ZM200.63 4.2L200.63 4.2Q200.63 7.15 202.46 8.65 204.28 10.15 208.23 10.15L208.23 10.15Q212.38 10.15 214.48 8.8 216.58 7.45 216.58 5L216.58 5Q216.58 3.6 215.56 2.75 214.53 1.9 212.08 1.45L212.08 1.45 203.03-0.25Q202.63-0.35 202.23-0.45L202.23-0.45Q201.53 0.55 201.08 1.83 200.63 3.1 200.63 4.2ZM236.33-24.8L236.33-24.8Q239.58-24.8 241.88-23.48 244.18-22.15 245.41-19.88 246.63-17.6 246.63-14.7L246.63-14.7Q246.63-14.15 246.58-13.58 246.53-13 246.38-12.55L246.38-12.55 231.48-12.55Q231.53-7.15 233.41-4.78 235.28-2.4 238.98-2.4L238.98-2.4Q241.48-2.4 243.03-3.2 244.58-4 245.93-5.55L245.93-5.55 246.43-5.1Q244.88-2.35 242.31-0.8 239.73 0.75 236.13 0.75L236.13 0.75Q232.58 0.75 229.83-0.78 227.08-2.3 225.53-5.15 223.98-8 223.98-11.95L223.98-11.95Q223.98-16.05 225.78-18.93 227.58-21.8 230.41-23.3 233.23-24.8 236.33-24.8ZM236.18-23.8L236.18-23.8Q234.73-23.8 233.71-22.93 232.68-22.05 232.11-19.83 231.53-17.6 231.48-13.55L231.48-13.55 240.03-13.55Q240.53-19 239.63-21.4 238.73-23.8 236.18-23.8ZM277.23 0.9L277.23 0.9Q272.13 0.9 268.25-1.23 264.38-3.35 262.2-7.28 260.03-11.2 260.03-16.55L260.03-16.55Q260.03-21.75 262.18-25.65 264.33-29.55 268.4-31.73 272.48-33.9 278.28-33.9L278.28-33.9Q280.93-33.9 283.2-33.3 285.48-32.7 287.53-31.55L287.53-31.55 287.73-24.55 287.23-24.55 284.43-29.75Q283.78-31 283.23-31.55 282.68-32.1 281.83-32.4L281.83-32.4Q281.03-32.65 280.35-32.77 279.68-32.9 278.58-32.9L278.58-32.9Q275.48-32.9 273.1-31.25 270.73-29.6 269.43-26 268.13-22.4 268.13-16.55L268.13-16.55Q268.13-10.75 269.35-7.1 270.58-3.45 272.83-1.78 275.08-0.1 278.03-0.1L278.03-0.1Q278.48-0.1 278.9-0.18 279.33-0.25 279.73-0.35L279.73-0.35Q280.68-0.5 280.98-1.15 281.28-1.8 281.28-2.7L281.28-2.7 281.28-12.6Q281.28-14.55 279.28-15L279.28-15 276.98-15.6 276.98-16.1 291.08-16.1 291.08-15.6 290.38-15.4Q288.48-14.8 288.48-12.9L288.48-12.9 288.48-2.05Q285.88-0.6 283.2 0.15 280.53 0.9 277.23 0.9ZM300.12 0.75L300.12 0.75Q297.22 0.75 295.25-0.9 293.27-2.55 293.27-5.65L293.27-5.65Q293.27-8 295.67-9.98 298.07-11.95 303.22-12.95L303.22-12.95Q304.02-13.1 305.02-13.28 306.02-13.45 307.12-13.65L307.12-13.65 307.12-17.6Q307.12-21 306.3-22.38 305.47-23.75 303.72-23.75L303.72-23.75Q302.52-23.75 301.82-22.98 301.12-22.2 300.92-20.3L300.92-20.3 300.82-19.75Q300.72-17.6 299.77-16.6 298.82-15.6 297.42-15.6L297.42-15.6Q296.12-15.6 295.27-16.4 294.42-17.2 294.42-18.55L294.42-18.55Q294.42-20.6 295.85-22 297.27-23.4 299.62-24.1 301.97-24.8 304.72-24.8L304.72-24.8Q309.17-24.8 311.6-22.63 314.02-20.45 314.02-15.55L314.02-15.55 314.02-4.5Q314.02-2.25 316.12-2.25L316.12-2.25 317.22-2.25 317.67-1.85Q316.72-0.65 315.6 0 314.47 0.65 312.42 0.65L312.42 0.65Q310.22 0.65 308.95-0.38 307.67-1.4 307.27-3.1L307.27-3.1Q305.77-1.5 304.2-0.38 302.62 0.75 300.12 0.75ZM303.17-2.3L303.17-2.3Q304.17-2.3 305.05-2.78 305.92-3.25 307.12-4.25L307.12-4.25 307.12-12.65Q306.62-12.55 306.12-12.45 305.62-12.35 304.97-12.25L304.97-12.25Q302.67-11.65 301.3-10.23 299.92-8.8 299.92-6.4L299.92-6.4Q299.92-4.35 300.87-3.33 301.82-2.3 303.17-2.3ZM328.22 0.75L328.22 0.75Q325.02 0.75 323.25-0.85 321.47-2.45 321.47-5.95L321.47-5.95 321.47-23.05 318.02-23.05 318.02-23.55 319.22-23.75Q320.77-24.1 321.9-24.75 323.02-25.4 324.12-26.5L324.12-26.5 328.22-31.05 328.72-31.05 328.57-24.05 334.17-24.05 334.17-23.05 328.52-23.05 328.52-5.05Q328.52-3.3 329.3-2.4 330.07-1.5 331.27-1.5L331.27-1.5Q332.32-1.5 333.12-2.02 333.92-2.55 334.72-3.45L334.72-3.45 335.22-2.95Q334.22-1.25 332.47-0.25 330.72 0.75 328.22 0.75ZM349.32-24.8L349.32-24.8Q352.57-24.8 354.87-23.48 357.17-22.15 358.39-19.88 359.62-17.6 359.62-14.7L359.62-14.7Q359.62-14.15 359.57-13.58 359.52-13 359.37-12.55L359.37-12.55 344.47-12.55Q344.52-7.15 346.39-4.78 348.27-2.4 351.97-2.4L351.97-2.4Q354.47-2.4 356.02-3.2 357.57-4 358.92-5.55L358.92-5.55 359.42-5.1Q357.87-2.35 355.29-0.8 352.72 0.75 349.12 0.75L349.12 0.75Q345.57 0.75 342.82-0.78 340.07-2.3 338.52-5.15 336.97-8 336.97-11.95L336.97-11.95Q336.97-16.05 338.77-18.93 340.57-21.8 343.39-23.3 346.22-24.8 349.32-24.8ZM349.17-23.8L349.17-23.8Q347.72-23.8 346.69-22.93 345.67-22.05 345.09-19.83 344.52-17.6 344.47-13.55L344.47-13.55 353.02-13.55Q353.52-19 352.62-21.4 351.72-23.8 349.17-23.8Z" opacity="1" transform="matrix(1,0,0,1,0,0)" fill="#ffffff" class="wordmark-text-0" data-fill-palette-color="primary" id="text-0"></path></svg></g></svg></g><g transform="matrix(1,0,0,1,0,63.4722043973114)"><svg viewBox="0 0 300.59520000000003 19.625869446672013" height="19.625869446672013" width="300.59520000000003"><g transform="matrix(1,0,0,1,0,0)"><svg width="300.59520000000003" viewBox="3.25 -37.7 730.59 47.71" height="19.625869446672013" data-palette-color="#ffffff"><path d="M10.25-13.99L10.25 0 3.25 0 3.25-35.01 27.76-35.01 27.76-28 10.25-28 10.25-21 20.75-21 20.75-13.99 10.25-13.99ZM52.85-13.31L52.85-13.31Q52.85-10.38 51.8-7.85 50.75-5.32 48.95-3.48 47.14-1.64 44.71-0.57 42.28 0.49 39.5 0.49L39.5 0.49Q36.74 0.49 34.31-0.57 31.88-1.64 30.06-3.48 28.24-5.32 27.19-7.85 26.14-10.38 26.14-13.31L26.14-13.31Q26.14-16.28 27.19-18.82 28.24-21.36 30.06-23.21 31.88-25.05 34.31-26.1 36.74-27.15 39.5-27.15L39.5-27.15Q42.28-27.15 44.71-26.16 47.14-25.17 48.95-23.35 50.75-21.53 51.8-18.98 52.85-16.43 52.85-13.31ZM46.14-13.31L46.14-13.31Q46.14-14.92 45.62-16.22 45.09-17.53 44.19-18.47 43.28-19.41 42.08-19.91 40.87-20.41 39.5-20.41L39.5-20.41Q38.13-20.41 36.92-19.91 35.72-19.41 34.82-18.47 33.93-17.53 33.42-16.22 32.91-14.92 32.91-13.31L32.91-13.31Q32.91-11.79 33.42-10.5 33.93-9.2 34.82-8.25 35.72-7.3 36.92-6.75 38.13-6.2 39.5-6.2L39.5-6.2Q40.87-6.2 42.08-6.71 43.28-7.23 44.19-8.15 45.09-9.08 45.62-10.4 46.14-11.72 46.14-13.31ZM63.2-14.4L63.2 0 56.54 0 56.54-26.15 58.15-26.15 60.35-23.05Q61.96-24.51 64.01-25.31 66.06-26.1 68.26-26.1L68.26-26.1 74.14-26.1 74.14-19.46 68.26-19.46Q67.21-19.46 66.28-19.07 65.35-18.68 64.67-17.99 63.98-17.31 63.59-16.38 63.2-15.45 63.2-14.4L63.2-14.4ZM109.39 0L104.34 0Q101.92 0 99.79-0.92 97.67-1.83 96.07-3.43 94.47-5.03 93.56-7.15 92.64-9.28 92.64-11.69L92.64-11.69 92.64-19.46 89.39-19.46 89.39-26.1 92.64-26.1 92.64-36.55 99.28-36.55 99.28-26.1 109.39-26.1 109.39-19.46 99.28-19.46 99.28-11.69Q99.28-10.64 99.67-9.73 100.06-8.81 100.75-8.13 101.43-7.45 102.36-7.04 103.29-6.64 104.34-6.64L104.34-6.64 109.39-6.64 109.39 0ZM119.79-14.94L119.79 0 113.12 0 113.12-36.55 119.79-36.55 119.79-25Q120.98-25.9 122.25-26.28 123.52-26.66 124.84-26.66L124.84-26.66Q127.26-26.66 129.38-25.74 131.51-24.83 133.08-23.23 134.66-21.63 135.57-19.49 136.49-17.36 136.49-14.94L136.49-14.94 136.49 0 129.77 0 129.77-14.94 129.82-14.94Q129.82-15.97 129.43-16.88 129.04-17.8 128.36-18.48 127.67-19.17 126.77-19.56 125.87-19.95 124.84-19.95L124.84-19.95Q123.79-19.95 122.86-19.56 121.94-19.17 121.25-18.48 120.57-17.8 120.18-16.88 119.79-15.97 119.79-14.94L119.79-14.94ZM164.12-21.46L151.62-6.4Q152.01-6.27 152.4-6.24 152.79-6.2 153.18-6.2L153.18-6.2Q154.16-6.2 155.06-6.47 155.97-6.74 156.76-7.24 157.55-7.74 158.18-8.46 158.8-9.18 159.19-10.06L159.19-10.06 164.07-5.15Q163.14-3.83 161.94-2.78 160.73-1.73 159.32-1 157.92-0.27 156.37 0.11 154.82 0.49 153.18 0.49L153.18 0.49Q150.42 0.49 148-0.54 145.57-1.56 143.75-3.39 141.93-5.22 140.88-7.75 139.83-10.28 139.83-13.31L139.83-13.31Q139.83-16.41 140.88-18.97 141.93-21.53 143.75-23.34 145.57-25.15 148-26.15 150.42-27.15 153.18-27.15L153.18-27.15Q154.82-27.15 156.38-26.76 157.94-26.37 159.35-25.63 160.75-24.9 161.97-23.84 163.19-22.78 164.12-21.46L164.12-21.46ZM147.28-9.84L155.04-20.14Q154.57-20.31 154.12-20.36 153.67-20.41 153.18-20.41L153.18-20.41Q151.82-20.41 150.61-19.91 149.4-19.41 148.51-18.48 147.62-17.55 147.1-16.25 146.59-14.94 146.59-13.31L146.59-13.31Q146.59-12.94 146.63-12.48 146.66-12.01 146.75-11.54 146.84-11.06 146.96-10.62 147.08-10.18 147.28-9.84L147.28-9.84ZM206.72-13.31L206.72-13.31Q206.72-10.38 205.67-7.85 204.62-5.32 202.81-3.48 201.01-1.64 198.58-0.57 196.15 0.49 193.36 0.49L193.36 0.49Q190.61 0.49 188.18-0.57 185.75-1.64 183.93-3.48 182.11-5.32 181.06-7.85 180.01-10.38 180.01-13.31L180.01-13.31Q180.01-16.28 181.06-18.82 182.11-21.36 183.93-23.21 185.75-25.05 188.18-26.1 190.61-27.15 193.36-27.15L193.36-27.15Q196.15-27.15 198.58-26.16 201.01-25.17 202.81-23.35 204.62-21.53 205.67-18.98 206.72-16.43 206.72-13.31ZM200-13.31L200-13.31Q200-14.92 199.48-16.22 198.95-17.53 198.05-18.47 197.15-19.41 195.94-19.91 194.73-20.41 193.36-20.41L193.36-20.41Q192-20.41 190.79-19.91 189.58-19.41 188.69-18.47 187.8-17.53 187.28-16.22 186.77-14.92 186.77-13.31L186.77-13.31Q186.77-11.79 187.28-10.5 187.8-9.2 188.69-8.25 189.58-7.3 190.79-6.75 192-6.2 193.36-6.2L193.36-6.2Q194.73-6.2 195.94-6.71 197.15-7.23 198.05-8.15 198.95-9.08 199.48-10.4 200-11.72 200-13.31ZM217.07-14.94L217.07 0 210.4 0 210.4-26.15 212.01-26.15 214.21-23.61Q215.82-25.07 217.86-25.87 219.9-26.66 222.12-26.66L222.12-26.66Q224.51-26.66 226.64-25.74 228.76-24.83 230.35-23.23 231.94-21.63 232.85-19.49 233.77-17.36 233.77-14.94L233.77-14.94 233.77 0 227.1 0 227.1-14.94Q227.1-15.97 226.71-16.88 226.32-17.8 225.64-18.48 224.95-19.17 224.05-19.56 223.15-19.95 222.12-19.95L222.12-19.95Q221.07-19.95 220.14-19.56 219.22-19.17 218.53-18.48 217.85-17.8 217.46-16.88 217.07-15.97 217.07-14.94L217.07-14.94ZM261.4-21.46L248.9-6.4Q249.29-6.27 249.68-6.24 250.07-6.2 250.46-6.2L250.46-6.2Q251.44-6.2 252.34-6.47 253.25-6.74 254.04-7.24 254.83-7.74 255.46-8.46 256.08-9.18 256.47-10.06L256.47-10.06 261.35-5.15Q260.42-3.83 259.22-2.78 258.01-1.73 256.6-1 255.2-0.27 253.65 0.11 252.1 0.49 250.46 0.49L250.46 0.49Q247.7 0.49 245.28-0.54 242.85-1.56 241.03-3.39 239.21-5.22 238.16-7.75 237.11-10.28 237.11-13.31L237.11-13.31Q237.11-16.41 238.16-18.97 239.21-21.53 241.03-23.34 242.85-25.15 245.28-26.15 247.7-27.15 250.46-27.15L250.46-27.15Q252.1-27.15 253.66-26.76 255.22-26.37 256.63-25.63 258.03-24.9 259.25-23.84 260.47-22.78 261.4-21.46L261.4-21.46ZM244.56-9.84L252.32-20.14Q251.85-20.31 251.4-20.36 250.95-20.41 250.46-20.41L250.46-20.41Q249.1-20.41 247.89-19.91 246.68-19.41 245.79-18.48 244.9-17.55 244.38-16.25 243.87-14.94 243.87-13.31L243.87-13.31Q243.87-12.94 243.91-12.48 243.94-12.01 244.03-11.54 244.12-11.06 244.24-10.62 244.36-10.18 244.56-9.84L244.56-9.84ZM311.74-26.1L311.74-9.45Q311.74-7.4 310.96-5.58 310.18-3.76 308.82-2.42 307.47-1.07 305.65-0.29 303.83 0.49 301.75 0.49L301.75 0.49Q299.9 0.49 298.19-0.16 296.48-0.81 295.09-2.05L295.09-2.05Q293.72-0.81 292.02-0.16 290.33 0.49 288.45 0.49L288.45 0.49Q286.37 0.49 284.56-0.29 282.76-1.07 281.4-2.42 280.05-3.76 279.27-5.58 278.49-7.4 278.49-9.45L278.49-9.45 278.49-26.1 285.15-26.1 285.15-9.45Q285.15-8.76 285.41-8.17 285.66-7.57 286.12-7.12 286.57-6.67 287.16-6.41 287.76-6.15 288.45-6.15L288.45-6.15Q289.13-6.15 289.74-6.41 290.35-6.67 290.81-7.12 291.28-7.57 291.53-8.17 291.79-8.76 291.79-9.45L291.79-9.45 291.79-26.1 298.43-26.1 298.43-9.45Q298.43-8.76 298.7-8.17 298.97-7.57 299.42-7.12 299.87-6.67 300.47-6.41 301.07-6.15 301.75-6.15L301.75-6.15Q302.44-6.15 303.05-6.41 303.66-6.67 304.11-7.12 304.56-7.57 304.83-8.17 305.1-8.76 305.1-9.45L305.1-9.45 305.1-26.1 311.74-26.1ZM323.23-14.94L323.23 0 316.57 0 316.57-36.55 323.23-36.55 323.23-25Q324.43-25.9 325.7-26.28 326.97-26.66 328.29-26.66L328.29-26.66Q330.7-26.66 332.83-25.74 334.95-24.83 336.53-23.23 338.1-21.63 339.02-19.49 339.93-17.36 339.93-14.94L339.93-14.94 339.93 0 333.22 0 333.22-14.94 333.27-14.94Q333.27-15.97 332.88-16.88 332.49-17.8 331.8-18.48 331.12-19.17 330.22-19.56 329.31-19.95 328.29-19.95L328.29-19.95Q327.24-19.95 326.31-19.56 325.38-19.17 324.7-18.48 324.02-17.8 323.62-16.88 323.23-15.97 323.23-14.94L323.23-14.94ZM369.94-13.31L369.94-13.31Q369.94-10.38 368.89-7.85 367.84-5.32 366.03-3.48 364.22-1.64 361.79-0.57 359.36 0.49 356.58 0.49L356.58 0.49Q353.82 0.49 351.39-0.57 348.96-1.64 347.15-3.48 345.33-5.32 344.28-7.85 343.23-10.38 343.23-13.31L343.23-13.31Q343.23-16.28 344.28-18.82 345.33-21.36 347.15-23.21 348.96-25.05 351.39-26.1 353.82-27.15 356.58-27.15L356.58-27.15Q359.36-27.15 361.79-26.16 364.22-25.17 366.03-23.35 367.84-21.53 368.89-18.98 369.94-16.43 369.94-13.31ZM363.22-13.31L363.22-13.31Q363.22-14.92 362.7-16.22 362.17-17.53 361.27-18.47 360.37-19.41 359.16-19.91 357.95-20.41 356.58-20.41L356.58-20.41Q355.21-20.41 354.01-19.91 352.8-19.41 351.91-18.47 351.01-17.53 350.5-16.22 349.99-14.92 349.99-13.31L349.99-13.31Q349.99-11.79 350.5-10.5 351.01-9.2 351.91-8.25 352.8-7.3 354.01-6.75 355.21-6.2 356.58-6.2L356.58-6.2Q357.95-6.2 359.16-6.71 360.37-7.23 361.27-8.15 362.17-9.08 362.7-10.4 363.22-11.72 363.22-13.31ZM412.92-26.1L412.92 0 411.31 0 408.72-3.59Q407.77-2.73 406.71-1.99 405.65-1.25 404.48-0.7 403.3-0.15 402.07 0.17 400.84 0.49 399.57 0.49L399.57 0.49Q396.81 0.49 394.38-0.44 391.95-1.37 390.13-3.14 388.31-4.91 387.26-7.47 386.21-10.03 386.21-13.31L386.21-13.31Q386.21-16.36 387.26-18.91 388.31-21.46 390.13-23.29 391.95-25.12 394.38-26.14 396.81-27.15 399.57-27.15L399.57-27.15Q400.84-27.15 402.08-26.83 403.33-26.51 404.5-25.95 405.67-25.39 406.73-24.63 407.8-23.88 408.72-23L408.72-23 411.31-26.1 412.92-26.1ZM406.21-13.31L406.21-13.31Q406.21-14.67 405.69-15.95 405.16-17.24 404.26-18.23 403.35-19.21 402.15-19.81 400.94-20.41 399.57-20.41L399.57-20.41Q398.2-20.41 396.99-19.95 395.79-19.48 394.89-18.58 394-17.68 393.49-16.35 392.98-15.01 392.98-13.31L392.98-13.31Q392.98-11.6 393.49-10.27 394-8.94 394.89-8.03 395.79-7.13 396.99-6.67 398.2-6.2 399.57-6.2L399.57-6.2Q400.94-6.2 402.15-6.8 403.35-7.4 404.26-8.39 405.16-9.38 405.69-10.66 406.21-11.94 406.21-13.31ZM432.35 0L432.35 0 417.12 0 417.12-6.64 432.35-6.64Q433.04-6.64 433.53-7.13 434.02-7.62 434.02-8.3L434.02-8.3Q434.02-9.01 433.53-9.23 433.04-9.45 432.35-9.45L432.35-9.45 425.42-9.45Q423.69-9.45 422.17-10.11 420.66-10.77 419.54-11.9 418.41-13.04 417.77-14.55 417.12-16.06 417.12-17.8L417.12-17.8Q417.12-19.53 417.77-21.04 418.41-22.56 419.54-23.68 420.66-24.8 422.17-25.45 423.69-26.1 425.42-26.1L425.42-26.1 438.92-26.1 438.92-19.46 425.42-19.46Q424.74-19.46 424.25-18.97 423.76-18.48 423.76-17.8L423.76-17.8Q423.76-17.09 424.25-16.59 424.74-16.09 425.42-16.09L425.42-16.09 432.35-16.09Q434.06-16.09 435.58-15.52 437.09-14.94 438.21-13.92 439.34-12.89 440-11.45 440.66-10.01 440.66-8.3L440.66-8.3Q440.66-6.57 440-5.07 439.34-3.56 438.21-2.43 437.09-1.29 435.58-0.65 434.06 0 432.35 0ZM450.91-1.76L450.91 9.96 444.19 9.96 444.19-26.15 445.8-26.15 448.47-23Q449.37-23.85 450.44-24.61 451.52-25.37 452.68-25.92 453.84-26.46 455.08-26.78 456.33-27.1 457.6-27.1L457.6-27.1Q460.36-27.1 462.78-26.11 465.21-25.12 467.03-23.32 468.85-21.51 469.9-18.96 470.95-16.41 470.95-13.31L470.95-13.31Q470.95-10.08 469.9-7.51 468.85-4.93 467.03-3.14 465.21-1.34 462.78-0.39 460.36 0.56 457.6 0.56L457.6 0.56Q456.72 0.56 455.85 0.37 454.98 0.17 454.14-0.16 453.3-0.49 452.48-0.9 451.66-1.32 450.91-1.76L450.91-1.76ZM464.26-13.31L464.26-13.31Q464.26-14.97 463.74-16.28 463.21-17.6 462.31-18.52 461.41-19.43 460.18-19.92 458.96-20.41 457.6-20.41L457.6-20.41Q456.23-20.41 455.02-19.92 453.81-19.43 452.91-18.52 452.01-17.6 451.48-16.28 450.96-14.97 450.96-13.31L450.96-13.31Q450.96-11.72 451.48-10.4 452.01-9.08 452.91-8.15 453.81-7.23 455.02-6.71 456.23-6.2 457.6-6.2L457.6-6.2Q458.96-6.2 460.18-6.71 461.41-7.23 462.31-8.15 463.21-9.08 463.74-10.4 464.26-11.72 464.26-13.31ZM482.5-33.25L482.5-33.25Q482.5-32.32 482.14-31.52 481.79-30.71 481.18-30.11 480.57-29.52 479.75-29.16 478.93-28.81 478-28.81L478-28.81Q477.08-28.81 476.26-29.16 475.44-29.52 474.84-30.11 474.24-30.71 473.89-31.52 473.54-32.32 473.54-33.25L473.54-33.25Q473.54-34.16 473.89-34.97 474.24-35.79 474.84-36.39 475.44-36.99 476.26-37.34 477.08-37.7 478-37.7L478-37.7Q478.93-37.7 479.75-37.34 480.57-36.99 481.18-36.39 481.79-35.79 482.14-34.97 482.5-34.16 482.5-33.25ZM481.35-26.15L481.35 0 474.64 0 474.64-26.15 481.35-26.15ZM493.09-14.4L493.09 0 486.42 0 486.42-26.15 488.04-26.15 490.23-23.05Q491.84-24.51 493.9-25.31 495.95-26.1 498.14-26.1L498.14-26.1 504.03-26.1 504.03-19.46 498.14-19.46Q497.09-19.46 496.17-19.07 495.24-18.68 494.55-17.99 493.87-17.31 493.48-16.38 493.09-15.45 493.09-14.4L493.09-14.4ZM529.54-21.46L517.04-6.4Q517.43-6.27 517.82-6.24 518.21-6.2 518.6-6.2L518.6-6.2Q519.58-6.2 520.48-6.47 521.38-6.74 522.18-7.24 522.97-7.74 523.59-8.46 524.22-9.18 524.61-10.06L524.61-10.06 529.49-5.15Q528.56-3.83 527.35-2.78 526.14-1.73 524.74-1 523.34-0.27 521.79 0.11 520.24 0.49 518.6 0.49L518.6 0.49Q515.84 0.49 513.41-0.54 510.98-1.56 509.16-3.39 507.34-5.22 506.3-7.75 505.25-10.28 505.25-13.31L505.25-13.31Q505.25-16.41 506.3-18.97 507.34-21.53 509.16-23.34 510.98-25.15 513.41-26.15 515.84-27.15 518.6-27.15L518.6-27.15Q520.24-27.15 521.8-26.76 523.36-26.37 524.76-25.63 526.17-24.9 527.39-23.84 528.61-22.78 529.54-21.46L529.54-21.46ZM512.69-9.84L520.46-20.14Q519.99-20.31 519.54-20.36 519.09-20.41 518.6-20.41L518.6-20.41Q517.23-20.41 516.02-19.91 514.82-19.41 513.92-18.48 513.03-17.55 512.52-16.25 512.01-14.94 512.01-13.31L512.01-13.31Q512.01-12.94 512.04-12.48 512.08-12.01 512.17-11.54 512.25-11.06 512.37-10.62 512.5-10.18 512.69-9.84L512.69-9.84ZM547.24 0L547.24 0 532 0 532-6.64 547.24-6.64Q547.92-6.64 548.41-7.13 548.9-7.62 548.9-8.3L548.9-8.3Q548.9-9.01 548.41-9.23 547.92-9.45 547.24-9.45L547.24-9.45 540.3-9.45Q538.57-9.45 537.05-10.11 535.54-10.77 534.42-11.9 533.29-13.04 532.65-14.55 532-16.06 532-17.8L532-17.8Q532-19.53 532.65-21.04 533.29-22.56 534.42-23.68 535.54-24.8 537.05-25.45 538.57-26.1 540.3-26.1L540.3-26.1 553.8-26.1 553.8-19.46 540.3-19.46Q539.62-19.46 539.13-18.97 538.64-18.48 538.64-17.8L538.64-17.8Q538.64-17.09 539.13-16.59 539.62-16.09 540.3-16.09L540.3-16.09 547.24-16.09Q548.94-16.09 550.46-15.52 551.97-14.94 553.09-13.92 554.22-12.89 554.88-11.45 555.54-10.01 555.54-8.3L555.54-8.3Q555.54-6.57 554.88-5.07 554.22-3.56 553.09-2.43 551.97-1.29 550.46-0.65 548.94 0 547.24 0ZM591.22 0L586.17 0Q583.75 0 581.63-0.92 579.51-1.83 577.91-3.43 576.31-5.03 575.39-7.15 574.48-9.28 574.48-11.69L574.48-11.69 574.48-19.46 571.23-19.46 571.23-26.1 574.48-26.1 574.48-36.55 581.12-36.55 581.12-26.1 591.22-26.1 591.22-19.46 581.12-19.46 581.12-11.69Q581.12-10.64 581.51-9.73 581.9-8.81 582.58-8.13 583.27-7.45 584.19-7.04 585.12-6.64 586.17-6.64L586.17-6.64 591.22-6.64 591.22 0ZM620.23-13.31L620.23-13.31Q620.23-10.38 619.18-7.85 618.13-5.32 616.32-3.48 614.51-1.64 612.08-0.57 609.65 0.49 606.87 0.49L606.87 0.49Q604.11 0.49 601.68-0.57 599.25-1.64 597.44-3.48 595.62-5.32 594.57-7.85 593.52-10.38 593.52-13.31L593.52-13.31Q593.52-16.28 594.57-18.82 595.62-21.36 597.44-23.21 599.25-25.05 601.68-26.1 604.11-27.15 606.87-27.15L606.87-27.15Q609.65-27.15 612.08-26.16 614.51-25.17 616.32-23.35 618.13-21.53 619.18-18.98 620.23-16.43 620.23-13.31ZM613.51-13.31L613.51-13.31Q613.51-14.92 612.99-16.22 612.46-17.53 611.56-18.47 610.66-19.41 609.45-19.91 608.24-20.41 606.87-20.41L606.87-20.41Q605.5-20.41 604.3-19.91 603.09-19.41 602.2-18.47 601.3-17.53 600.79-16.22 600.28-14.92 600.28-13.31L600.28-13.31Q600.28-11.79 600.79-10.5 601.3-9.2 602.2-8.25 603.09-7.3 604.3-6.75 605.5-6.2 606.87-6.2L606.87-6.2Q608.24-6.2 609.45-6.71 610.66-7.23 611.56-8.15 612.46-9.08 612.99-10.4 613.51-11.72 613.51-13.31ZM656.5-13.31L656.5-13.31Q656.5-14.67 655.97-15.95 655.45-17.24 654.55-18.23 653.64-19.21 652.43-19.81 651.23-20.41 649.86-20.41L649.86-20.41Q648.49-20.41 647.28-19.95 646.08-19.48 645.18-18.58 644.29-17.68 643.78-16.35 643.27-15.01 643.27-13.31L643.27-13.31Q643.27-11.67 643.78-10.36 644.29-9.06 645.18-8.13 646.08-7.2 647.28-6.7 648.49-6.2 649.86-6.2L649.86-6.2Q651.23-6.2 652.43-6.8 653.64-7.4 654.55-8.39 655.45-9.38 655.97-10.66 656.5-11.94 656.5-13.31ZM663.21-26.1L663.21-3.3Q663.21-0.54 662.16 1.88 661.11 4.3 659.3 6.1 657.48 7.91 655.05 8.96 652.62 10.01 649.86 10.01L649.86 10.01 646.51 9.96 646.51 3.3 649.81 3.34Q651.37 3.34 652.47 2.94 653.57 2.54 654.33 1.84 655.08 1.15 655.54 0.24 655.99-0.66 656.26-1.66L656.26-1.66Q655.87-1.03 655.13-0.62 654.4-0.22 653.51 0.04 652.62 0.29 651.65 0.39 650.69 0.49 649.86 0.49L649.86 0.49Q647.1 0.49 644.67-0.46 642.24-1.42 640.42-3.19 638.6-4.96 637.55-7.52 636.5-10.08 636.5-13.31L636.5-13.31Q636.5-16.26 637.55-18.8 638.6-21.34 640.42-23.19 642.24-25.05 644.67-26.1 647.1-27.15 649.86-27.15L649.86-27.15Q651.13-27.15 652.37-26.83 653.62-26.51 654.79-25.95 655.96-25.39 657.02-24.63 658.09-23.88 659.01-23L659.01-23 661.6-26.1 663.21-26.1ZM693.61-26.1L693.61 0 692 0 689.41-3.59Q688.46-2.73 687.39-1.99 686.33-1.25 685.16-0.7 683.99-0.15 682.75 0.17 681.52 0.49 680.25 0.49L680.25 0.49Q677.49 0.49 675.06-0.44 672.64-1.37 670.82-3.14 669-4.91 667.95-7.47 666.9-10.03 666.9-13.31L666.9-13.31Q666.9-16.36 667.95-18.91 669-21.46 670.82-23.29 672.64-25.12 675.06-26.14 677.49-27.15 680.25-27.15L680.25-27.15Q681.52-27.15 682.77-26.83 684.01-26.51 685.18-25.95 686.36-25.39 687.42-24.63 688.48-23.88 689.41-23L689.41-23 692-26.1 693.61-26.1ZM686.89-13.31L686.89-13.31Q686.89-14.67 686.37-15.95 685.84-17.24 684.94-18.23 684.04-19.21 682.83-19.81 681.62-20.41 680.25-20.41L680.25-20.41Q678.89-20.41 677.68-19.95 676.47-19.48 675.58-18.58 674.69-17.68 674.17-16.35 673.66-15.01 673.66-13.31L673.66-13.31Q673.66-11.6 674.17-10.27 674.69-8.94 675.58-8.03 676.47-7.13 677.68-6.67 678.89-6.2 680.25-6.2L680.25-6.2Q681.62-6.2 682.83-6.8 684.04-7.4 684.94-8.39 685.84-9.38 686.37-10.66 686.89-11.94 686.89-13.31ZM706.54-33.25L706.54-33.25Q706.54-32.32 706.19-31.52 705.84-30.71 705.23-30.11 704.61-29.52 703.8-29.16 702.98-28.81 702.05-28.81L702.05-28.81Q701.12-28.81 700.31-29.16 699.49-29.52 698.89-30.11 698.29-30.71 697.94-31.52 697.58-32.32 697.58-33.25L697.58-33.25Q697.58-34.16 697.94-34.97 698.29-35.79 698.89-36.39 699.49-36.99 700.31-37.34 701.12-37.7 702.05-37.7L702.05-37.7Q702.98-37.7 703.8-37.34 704.61-36.99 705.23-36.39 705.84-35.79 706.19-34.97 706.54-34.16 706.54-33.25ZM705.4-26.15L705.4 0 698.68 0 698.68-26.15 705.4-26.15ZM717.14-14.94L717.14 0 710.47 0 710.47-26.15 712.08-26.15 714.28-23.61Q715.89-25.07 717.93-25.87 719.97-26.66 722.19-26.66L722.19-26.66Q724.58-26.66 726.71-25.74 728.83-24.83 730.42-23.23 732.01-21.63 732.92-19.49 733.84-17.36 733.84-14.94L733.84-14.94 733.84 0 727.17 0 727.17-14.94Q727.17-15.97 726.78-16.88 726.39-17.8 725.71-18.48 725.02-19.17 724.12-19.56 723.22-19.95 722.19-19.95L722.19-19.95Q721.14-19.95 720.21-19.56 719.29-19.17 718.6-18.48 717.92-17.8 717.53-16.88 717.14-15.97 717.14-14.94L717.14-14.94Z" opacity="1" transform="matrix(1,0,0,1,0,0)" fill="#ffffff" class="slogan-text-1" data-fill-palette-color="secondary" id="text-1"></path></svg></g></svg></g></svg></g></svg></g><g><svg viewBox="0 0 114.8415380523851 114.84153805238509" height="114.84153805238509" width="114.8415380523851"><g><svg></svg></g><g id="icon-0"><svg viewBox="0 0 114.8415380523851 114.84153805238509" height="114.84153805238509" width="114.8415380523851"><g><path transform="scale(1.14842,1.14842)" d="M30 100c-16.569 0-30-13.431-30-30v-40c0-16.569 13.431-30 30-30h40c16.569 0 30 13.431 30 30v40c0 16.569-13.431 30-30 30z" fill="#ffffff" fill-rule="nonzero" stroke="none" stroke-width="1" stroke-linecap="butt" stroke-linejoin="miter" stroke-miterlimit="10" stroke-dasharray="" stroke-dashoffset="0" font-family="none" font-weight="none" font-size="none" text-anchor="none" style="mix-blend-mode: normal" data-fill-palette-color="accent"></path></g><g transform="matrix(1,0,0,1,22.968307610477027,22.969476155246724)"><svg viewBox="0 0 68.90492283143105 68.90258574189164" height="68.90258574189164" width="68.90492283143105"><g><svg xmlns="http://www.w3.org/2000/svg" xmlns:xlink="http://www.w3.org/1999/xlink" version="1.1" x="0" y="0" viewBox="2 2.0010000000000003 44.000492391055246 43.999" enable-background="new 0 0 48 48" xml:space="preserve" height="68.90258574189164" width="68.90492283143105" class="icon-cg-0" data-fill-palette-color="quaternary" id="cg-0"><g fill="#343a40" data-fill-palette-color="quaternary"><path d="M20 20.5c0-1.379-1.122-2.5-2.5-2.5S15 19.121 15 20.5s1.122 2.5 2.5 2.5S20 21.879 20 20.5zM16.5 20.5c0-0.553 0.448-1 1-1s1 0.447 1 1-0.448 1-1 1S16.5 21.053 16.5 20.5zM24 24.333L23 23h2L24 24.333zM30.5 23c1.378 0 2.5-1.121 2.5-2.5S31.878 18 30.5 18 28 19.121 28 20.5 29.122 23 30.5 23zM30.5 19.5c0.552 0 1 0.447 1 1s-0.448 1-1 1-1-0.447-1-1S29.948 19.5 30.5 19.5zM45.13 43.449c-1.923-0.253-3.434-1.666-3.856-3.449H8c-0.552 0-1-0.447-1-1s0.448-1 1-1h33.273c0.423-1.783 1.934-3.196 3.856-3.449 0.41-0.054 0.744-0.354 0.842-0.755 0.098-0.4-0.062-0.821-0.4-1.057C44.887 32.263 44.051 32 43.217 32h-12.32C34.556 29.697 37 25.634 37 21v-4c0-0.553-0.448-1-1-1h-1.494l0.388-1.635 5.731-4.584c0.281-0.225 0.419-0.583 0.363-0.938-0.057-0.355-0.3-0.652-0.637-0.779l-16-6c-0.227-0.084-0.476-0.084-0.702 0l-16 6C7.312 8.19 7.069 8.487 7.012 8.843 6.956 9.198 7.094 9.557 7.375 9.781l5.731 4.584L13.494 16H12c-0.552 0-1 0.447-1 1v4c0 4.634 2.444 8.697 6.104 11H6.073C3.827 32 2 33.794 2 36v6c0 2.206 1.827 4 4.073 4h37.144c0.834 0 1.67-0.263 2.355-0.739 0.338-0.235 0.498-0.656 0.4-1.057C45.874 43.803 45.54 43.503 45.13 43.449zM13 20.5c0-2.481 2.019-4.5 4.5-4.5s4.5 2.019 4.5 4.5c0 0.171-0.032 0.334-0.051 0.5h4.102C26.032 20.834 26 20.671 26 20.5c0-2.481 2.019-4.5 4.5-4.5s4.5 2.019 4.5 4.5S32.981 25 30.5 25c-1.338 0-2.529-0.599-3.354-1.529L24.8 26.6C24.611 26.852 24.315 27 24 27s-0.611-0.148-0.8-0.4l-2.347-3.129C20.029 24.401 18.838 25 17.5 25 15.019 25 13 22.981 13 20.5z" fill="#343a40" data-fill-palette-color="quaternary"></path></g></svg></g></svg></g></svg></g></svg></g></svg></g><defs></defs></svg><rect width="395.52" height="86.93496173584468" fill="none" stroke="none" visibility="hidden"></rect></g></svg></g></svg>