<svg xmlns="http://www.w3.org/2000/svg" version="1.1" xmlns:xlink="http://www.w3.org/1999/xlink" xmlns:svgjs="http://svgjs.dev/svgjs" width="1500" height="227" viewBox="0 0 1500 227"><g transform="matrix(1,0,0,1,-0.9090909090909918,-0.7111438224211213)"><svg viewBox="0 0 396 60" data-background-color="#ffffff" preserveAspectRatio="xMidYMid meet" height="227" width="1500" xmlns="http://www.w3.org/2000/svg" xmlns:xlink="http://www.w3.org/1999/xlink"><g id="tight-bounds" transform="matrix(1,0,0,1,0.2400000000000091,0.18796753015536183)"><svg viewBox="0 0 395.52 59.623729162210495" height="59.623729162210495" width="395.52"><g><svg viewBox="0 0 473.47056978680286 71.37459804623235" height="59.623729162210495" width="395.52"><g transform="matrix(1,0,0,1,77.95056978680287,9.864361958632692)"><svg viewBox="0 0 395.52 51.645874128966966" height="51.645874128966966" width="395.52"><g id="textblocktransform"><svg viewBox="0 0 395.52 51.645874128966966" height="51.645874128966966" width="395.52" id="textblock"><g><svg viewBox="0 0 395.52 27.855316680096696" height="27.855316680096696" width="395.52"><g transform="matrix(1,0,0,1,0,0)"><svg width="395.52" viewBox="3.4 -33.4 620.44 43.7" height="27.855316680096696" data-palette-color="#002f81"><path d="M8.6-4.7L21.95-4.7 21.95 0 3.4 0 3.4-32.75 8.6-32.75 8.6-4.7ZM35.7-19.05L30.15-19.05 30.15-23.65 40.85-23.65 40.85-4.6 46.4-4.6 46.4 0 29.75 0 29.75-4.6 35.7-4.6 35.7-19.05ZM35.85-28.03Q34.9-29 34.9-30.3 34.9-31.6 35.8-32.5L35.8-32.5Q36.7-33.4 38-33.4 39.3-33.4 40.2-32.52 41.1-31.65 41.1-30.3 41.1-28.95 40.2-28 39.3-27.05 38.05-27.05 36.8-27.05 35.85-28.03ZM57.85 0L52.85 0 52.85-33.35 58-33.35 58-22Q61.1-24.15 63.8-24.15L63.8-24.15Q69-24.15 71.3-21.13 73.59-18.1 73.59-11.7 73.59-5.3 70.77-2.38 67.95 0.55 63.3 0.55L63.3 0.55Q61.15 0.55 57.95-1L57.95-1 57.85 0ZM63.15-19.3L63.15-19.3Q60.7-19.3 58-17.05L58-17.05 58-5.8Q61-4.3 63.4-4.3 65.8-4.3 66.92-6.13 68.05-7.95 68.05-11.75L68.05-11.75Q68.05-19.3 63.15-19.3ZM82.89-19.15L79.04-19.15 79.04-23.75 88.04-23.75 88.14-21.35Q89.74-22.25 92.32-23.08 94.89-23.9 97.09-24.15L97.09-24.15 97.09-19.15Q95.14-18.95 92.44-18.1 89.74-17.25 88.14-16.35L88.14-16.35 88.14-4.5 95.44-4.5 95.44 0 79.04 0 79.04-4.6 82.89-4.6 82.89-19.15ZM110.79-4.3L110.79-4.3Q112.19-4.3 113.89-4.95 115.59-5.6 116.59-6.4L116.59-6.4 116.59-9.9Q113.59-10.15 111.69-10.15L111.69-10.15Q107.54-10.15 107.54-7.05L107.54-7.05Q107.54-4.3 110.79-4.3ZM109.99 0.55L109.99 0.55Q101.99 0.55 101.99-7.05L101.99-7.05Q101.99-11.1 104.57-12.73 107.14-14.35 111.69-14.35L111.69-14.35Q113.84-14.35 116.59-14.1L116.59-14.1Q116.59-17.1 115.74-18.2 114.89-19.3 112.79-19.3 110.69-19.3 107.89-18.8 105.09-18.3 103.59-17.8L103.59-17.8 102.64-22.55Q107.89-24.15 112.89-24.15 117.89-24.15 119.82-21.95 121.74-19.75 121.74-14.5L121.74-14.5 121.74-4.35 122.29 0.05 117.14 0.55 116.64-1.75Q112.44 0.55 109.99 0.55ZM132.89-19.15L129.04-19.15 129.04-23.75 138.04-23.75 138.14-21.35Q139.74-22.25 142.31-23.08 144.89-23.9 147.09-24.15L147.09-24.15 147.09-19.15Q145.14-18.95 142.44-18.1 139.74-17.25 138.14-16.35L138.14-16.35 138.14-4.5 145.44-4.5 145.44 0 129.04 0 129.04-4.6 132.89-4.6 132.89-19.15ZM160.19 2.2L151.44-23.75 157.04-23.75 162.79-4.45 163.19-4.45 168.04-23.75 173.49-23.75 166.89-0.6Q165.84 3.1 164.94 5.08 164.04 7.05 162.44 8.3 160.84 9.55 158.89 9.9 156.94 10.25 153.39 10.3L153.39 10.3 153.39 5.65Q156.44 5.65 157.89 5 159.34 4.35 159.89 2.95L159.89 2.95 160.19 2.2ZM205.73 0L201.03 0 201.03-32.75 205.98-32.75 212.28-15.65 212.68-15.65 218.98-32.75 223.93-32.75 223.93 0 219.23 0 219.38-22.15 219.18-22.15 214.93-11.1 210.03-11.1 205.78-22.15 205.58-22.15 205.73 0ZM235.78-4.3L235.78-4.3Q237.18-4.3 238.88-4.95 240.58-5.6 241.58-6.4L241.58-6.4 241.58-9.9Q238.58-10.15 236.68-10.15L236.68-10.15Q232.53-10.15 232.53-7.05L232.53-7.05Q232.53-4.3 235.78-4.3ZM234.98 0.55L234.98 0.55Q226.98 0.55 226.98-7.05L226.98-7.05Q226.98-11.1 229.55-12.73 232.13-14.35 236.68-14.35L236.68-14.35Q238.83-14.35 241.58-14.1L241.58-14.1Q241.58-17.1 240.73-18.2 239.88-19.3 237.78-19.3 235.68-19.3 232.88-18.8 230.08-18.3 228.58-17.8L228.58-17.8 227.63-22.55Q232.88-24.15 237.88-24.15 242.88-24.15 244.8-21.95 246.73-19.75 246.73-14.5L246.73-14.5 246.73-4.35 247.28 0.05 242.13 0.55 241.63-1.75Q237.43 0.55 234.98 0.55ZM252.78-23.75L257.78-23.75 257.88-22.3Q261.93-24.15 264.23-24.15L264.23-24.15Q268.28-24.15 270.2-21.78 272.13-19.4 272.13-14.35L272.13-14.35 272.13 0 266.98 0 266.98-14.2Q266.98-16.6 266.13-17.95 265.28-19.3 263.48-19.3 261.68-19.3 257.93-17.55L257.93-17.55 257.93 0 252.78 0 252.78-23.75ZM285.77-4.3L285.77-4.3Q287.17-4.3 288.87-4.95 290.57-5.6 291.57-6.4L291.57-6.4 291.57-9.9Q288.57-10.15 286.67-10.15L286.67-10.15Q282.52-10.15 282.52-7.05L282.52-7.05Q282.52-4.3 285.77-4.3ZM284.97 0.55L284.97 0.55Q276.97 0.55 276.97-7.05L276.97-7.05Q276.97-11.1 279.55-12.73 282.12-14.35 286.67-14.35L286.67-14.35Q288.82-14.35 291.57-14.1L291.57-14.1Q291.57-17.1 290.72-18.2 289.87-19.3 287.77-19.3 285.67-19.3 282.87-18.8 280.07-18.3 278.57-17.8L278.57-17.8 277.62-22.55Q282.87-24.15 287.87-24.15 292.87-24.15 294.8-21.95 296.72-19.75 296.72-14.5L296.72-14.5 296.72-4.35 297.27 0.05 292.12 0.55 291.62-1.75Q287.42 0.55 284.97 0.55ZM322.77-23.9L322.77-5.75 322.92 1.15Q322.92 5.45 320.02 7.75 317.12 10.05 312.17 10.05 307.22 10.05 302.57 8.4L302.57 8.4 303.82 3.8Q308.32 5.3 311.27 5.3 314.22 5.3 316 4.28 317.77 3.25 317.77 1.2L317.77 1.2Q317.77 0.8 317.7-0.38 317.62-1.55 317.62-2.2L317.62-2.2Q314.42 0.05 311.42 0.05L311.42 0.05Q306.82 0.05 304.42-2.8 302.02-5.65 302.02-11.88 302.02-18.1 304.75-21.08 307.47-24.05 312.22-24.05L312.22-24.05Q313.27-24.05 314.9-23.55 316.52-23.05 317.62-22.45L317.62-22.45 317.72-23.9 322.77-23.9ZM311.77-4.7L311.77-4.7Q314.32-4.7 317.62-7.2L317.62-7.2 317.62-17.5Q314.77-19.3 312.37-19.3L312.37-19.3Q307.57-19.3 307.57-12 307.57-4.7 311.77-4.7ZM327.42-11.85Q327.42-17.9 330.12-21.03 332.82-24.15 337.62-24.15 342.42-24.15 345.04-21.33 347.67-18.5 347.77-13.05L347.77-13.05 347.57-9.35 332.97-9.35Q333.42-3.95 338.37-3.95L338.37-3.95Q341.82-3.95 345.67-5.2L345.67-5.2 346.72-0.85Q345.12-0.3 342.57 0.13 340.02 0.55 338.37 0.55L338.37 0.55Q327.42 0.55 327.42-11.85L327.42-11.85ZM337.82-19.5L337.82-19.5Q335.47-19.5 334.29-18.13 333.12-16.75 332.97-13.55L332.97-13.55 342.22-13.55Q342.22-19.5 337.82-19.5ZM351.12-23.75L356.02-23.75 356.17-22.4Q358.07-24.15 359.87-24.15L359.87-24.15Q362.42-24.15 363.72-22.25L363.72-22.25Q366.32-24.15 368.32-24.15L368.32-24.15Q371.32-24.15 372.59-22.4 373.87-20.65 373.87-15.9L373.87-15.9 373.87 0 368.77 0 368.77-13.7Q368.77-18.3 367.97-19L367.97-19Q367.57-19.4 366.82-19.4 366.07-19.4 364.92-18.4L364.92-18.4Q365.17-17.25 365.17-13.7L365.17-13.7 365.17-8.15 360.12-8.15 360.12-13.7Q360.12-18.25 359.57-19L359.57-19Q359.27-19.4 358.54-19.4 357.82-19.4 356.37-18.3L356.37-18.3 356.37 0 351.12 0 351.12-23.75ZM377.41-11.85Q377.41-17.9 380.11-21.03 382.81-24.15 387.61-24.15 392.41-24.15 395.04-21.33 397.66-18.5 397.76-13.05L397.76-13.05 397.56-9.35 382.96-9.35Q383.41-3.95 388.36-3.95L388.36-3.95Q391.81-3.95 395.66-5.2L395.66-5.2 396.71-0.85Q395.11-0.3 392.56 0.13 390.01 0.55 388.36 0.55L388.36 0.55Q377.41 0.55 377.41-11.85L377.41-11.85ZM387.81-19.5L387.81-19.5Q385.46-19.5 384.29-18.13 383.11-16.75 382.96-13.55L382.96-13.55 392.21-13.55Q392.21-19.5 387.81-19.5ZM402.76-23.75L407.76-23.75 407.86-22.3Q411.91-24.15 414.21-24.15L414.21-24.15Q418.26-24.15 420.19-21.78 422.11-19.4 422.11-14.35L422.11-14.35 422.11 0 416.96 0 416.96-14.2Q416.96-16.6 416.11-17.95 415.26-19.3 413.46-19.3 411.66-19.3 407.91-17.55L407.91-17.55 407.91 0 402.76 0 402.76-23.75ZM431.96-9.1L431.96-19.15 428.16-19.15 428.16-23.75 431.96-23.75 431.96-29.45 437.11-29.95 437.11-23.75 446.01-23.75 446.01-19.15 437.11-19.15 437.11-9.1Q437.11-6.35 437.66-5.25L437.66-5.25Q438.26-4.15 440.26-4.15 442.26-4.15 445.56-4.95L445.56-4.95 446.41-0.45Q442.61 0.55 439.91 0.55L439.91 0.55Q435.11 0.55 433.53-1.6 431.96-3.75 431.96-9.1L431.96-9.1ZM477.05-24L477.05-24Q477.05-33.25 488.15-33.25L488.15-33.25Q492.05-33.25 497.05-31.5L497.05-31.5 495.9-26.95Q490.8-28.55 487.88-28.58 484.95-28.6 483.65-27.6 482.35-26.6 482.35-24.1L482.35-24.1Q482.35-22.4 483.8-21.23 485.25-20.05 488.7-19.15L488.7-19.15Q493.95-17.75 495.9-15.55 497.85-13.35 497.85-9L497.85-9Q497.85 0.45 486.55 0.45L486.55 0.45Q482.8 0.45 477.1-1.15L477.1-1.15 478.15-5.9Q478.15-5.85 479.7-5.45L479.7-5.45Q484.55-4.2 487.23-4.2 489.9-4.2 491.23-5.55 492.55-6.9 492.55-8.95 492.55-11 491.43-12.1 490.3-13.2 487.3-14.05L487.3-14.05Q481.9-15.55 479.48-17.75 477.05-19.95 477.05-24ZM510.15 2.2L501.4-23.75 507-23.75 512.75-4.45 513.15-4.45 518-23.75 523.45-23.75 516.85-0.6Q515.8 3.1 514.9 5.08 514 7.05 512.4 8.3 510.8 9.55 508.85 9.9 506.9 10.25 503.35 10.3L503.35 10.3 503.35 5.65Q506.4 5.65 507.85 5 509.3 4.35 509.85 2.95L509.85 2.95 510.15 2.2ZM528.1-1.1L528.1-1.1 529.2-5.65Q533.95-4.15 536.75-4.15 539.55-4.15 540.55-4.7L540.55-4.7Q541.55-5.2 541.55-6.5 541.55-7.8 540.65-8.35 539.75-8.9 537.25-9.5L537.25-9.5Q532.3-10.7 530.35-12.18 528.4-13.65 528.4-17L528.4-17Q528.4-24.15 537.6-24.15L537.6-24.15Q541.55-24.15 546.75-22.85L546.75-22.85 545.8-18.1Q540.85-19.5 538.15-19.5 535.45-19.5 534.52-19.03 533.6-18.55 533.6-17.4 533.6-16.25 534.52-15.73 535.45-15.2 539.3-14.15 543.15-13.1 544.95-11.73 546.75-10.35 546.75-7.05L546.75-7.05Q546.75 0.5 537.45 0.5L537.45 0.5Q533.1 0.5 528.1-1.1ZM556.94-9.1L556.94-19.15 553.14-19.15 553.14-23.75 556.94-23.75 556.94-29.45 562.09-29.95 562.09-23.75 570.99-23.75 570.99-19.15 562.09-19.15 562.09-9.1Q562.09-6.35 562.64-5.25L562.64-5.25Q563.24-4.15 565.24-4.15 567.24-4.15 570.54-4.95L570.54-4.95 571.39-0.45Q567.59 0.55 564.89 0.55L564.89 0.55Q560.09 0.55 558.52-1.6 556.94-3.75 556.94-9.1L556.94-9.1ZM577.39-11.85Q577.39-17.9 580.09-21.03 582.79-24.15 587.59-24.15 592.39-24.15 595.02-21.33 597.64-18.5 597.74-13.05L597.74-13.05 597.54-9.35 582.94-9.35Q583.39-3.95 588.34-3.95L588.34-3.95Q591.79-3.95 595.64-5.2L595.64-5.2 596.69-0.85Q595.09-0.3 592.54 0.13 589.99 0.55 588.34 0.55L588.34 0.55Q577.39 0.55 577.39-11.85L577.39-11.85ZM587.79-19.5L587.79-19.5Q585.44-19.5 584.27-18.13 583.09-16.75 582.94-13.55L582.94-13.55 592.19-13.55Q592.19-19.5 587.79-19.5ZM601.09-23.75L605.99-23.75 606.14-22.4Q608.04-24.15 609.84-24.15L609.84-24.15Q612.39-24.15 613.69-22.25L613.69-22.25Q616.29-24.15 618.29-24.15L618.29-24.15Q621.29-24.15 622.56-22.4 623.84-20.65 623.84-15.9L623.84-15.9 623.84 0 618.74 0 618.74-13.7Q618.74-18.3 617.94-19L617.94-19Q617.54-19.4 616.79-19.4 616.04-19.4 614.89-18.4L614.89-18.4Q615.14-17.25 615.14-13.7L615.14-13.7 615.14-8.15 610.09-8.15 610.09-13.7Q610.09-18.25 609.54-19L609.54-19Q609.24-19.4 608.51-19.4 607.79-19.4 606.34-18.3L606.34-18.3 606.34 0 601.09 0 601.09-23.75Z" opacity="1" transform="matrix(1,0,0,1,0,0)" fill="#002f81" class="wordmark-text-0" data-fill-palette-color="primary" id="text-0"></path></svg></g></svg></g><g transform="matrix(1,0,0,1,0,34.4312884206672)"><svg viewBox="0 0 395.52 17.214585708299758" height="17.214585708299758" width="395.52"><g transform="matrix(1,0,0,1,0,0)"><svg width="395.52" viewBox="1.75 -37.5 1148.79 50" height="17.214585708299758" data-palette-color="#000000"><path d="M5.15-2L2-2 1.75 0 10.55 0Q15.85 0 19.75-1.63 23.65-3.25 26.3-5.8L26.3-5.8Q28.95-8.35 30.4-11.45 31.85-14.55 32.3-17.5L32.3-17.5Q32.85-21.5 31.9-24.75 30.95-28 28.9-30.3L28.9-30.3Q26.8-32.55 23.78-33.77 20.75-35 17.15-35L17.15-35 6.65-35 6.35-33.05 9.5-33.05 5.15-2ZM7.2-2L11.55-33.05 16.85-33.05Q20.05-33.05 22.75-31.95 25.45-30.85 27.3-28.85L27.3-28.85Q29.15-26.8 29.98-23.93 30.8-21.05 30.3-17.5L30.3-17.5Q29.85-14.55 28.43-11.78 27-9 24.65-6.85L24.65-6.85Q22.3-4.65 19-3.33 15.7-2 11.55-2L11.55-2 7.2-2ZM78.07-1.95L74.22-1.95 73.97 0 83.62 0 83.87-1.95 80.12-1.95 82.47-18.75 76.57-18.75 76.27-16.8 80.17-16.8 78.07-1.95ZM80.82-25.4L80.82-25.4Q80.67-24.7 81.12-24.23 81.57-23.75 82.22-23.75L82.22-23.75Q82.82-23.75 83.37-24.23 83.92-24.7 84.07-25.4L84.07-25.4Q84.12-26.1 83.69-26.58 83.27-27.05 82.67-27.05L82.67-27.05Q82.02-27.05 81.47-26.58 80.92-26.1 80.82-25.4ZM129.28-5.1L128.78-1.45Q129.68-0.5 131.26-0.05 132.83 0.4 134.48 0.4L134.48 0.4Q136.13 0.4 137.41-0.15 138.68-0.7 139.53-1.6L139.53-1.6Q140.33-2.4 140.76-3.3 141.18-4.2 141.28-5.25L141.28-5.25Q141.43-6.85 140.93-7.8 140.43-8.75 139.53-9.35L139.53-9.35Q138.58-9.95 137.43-10.33 136.28-10.7 135.33-11.15L135.33-11.15Q134.33-11.55 133.73-12.18 133.13-12.8 133.28-13.9L133.28-13.9Q133.38-14.75 133.78-15.35 134.18-15.95 134.73-16.35L134.73-16.35Q135.28-16.7 136.01-16.88 136.73-17.05 137.33-17.05L137.33-17.05Q138.08-17.05 138.83-16.88 139.58-16.7 140.23-16.25L140.23-16.25 139.83-13.65 141.73-13.65 142.23-17.3Q141.78-17.85 141.03-18.23 140.28-18.6 139.53-18.8L139.53-18.8Q138.78-18.95 138.16-19 137.53-19.05 137.33-19.05L137.33-19.05Q136.43-19.05 135.43-18.73 134.43-18.4 133.53-17.75L133.53-17.75Q132.63-17.1 132.01-16.15 131.38-15.2 131.18-13.85L131.18-13.85Q130.98-12.2 131.53-11.28 132.08-10.35 133.03-9.85L133.03-9.85Q134.03-9.35 135.18-9 136.33-8.65 137.28-8.25L137.28-8.25Q138.28-7.8 138.81-7.1 139.33-6.4 139.18-5.1L139.18-5.1Q139.08-4.2 138.68-3.58 138.28-2.95 137.63-2.5L137.63-2.5Q136.93-2.05 136.23-1.83 135.53-1.6 134.63-1.6L134.63-1.6Q133.53-1.6 132.56-1.83 131.58-2.05 130.83-2.55L130.83-2.55 131.18-5.1 129.28-5.1ZM200.75-1.8L200.75-1.8 199.65-3.35Q198.55-2.55 197.22-2.1 195.9-1.65 194.5-1.65L194.5-1.65Q192.9-1.65 191.6-2.2 190.3-2.75 189.45-3.75L189.45-3.75Q188.45-4.8 188.02-6.25 187.6-7.7 187.85-9.4L187.85-9.4Q188.05-11 188.85-12.43 189.65-13.85 190.85-14.9L190.85-14.9Q192.05-15.95 193.55-16.55 195.05-17.15 196.7-17.15L196.7-17.15Q197.9-17.15 198.95-16.8 200-16.45 200.85-15.8L200.85-15.8 200.35-12.1 202.2-12.1 202.9-17Q201.8-18 200.3-18.57 198.8-19.15 197-19.15L197-19.15Q194.9-19.15 193.02-18.38 191.15-17.6 189.65-16.3L189.65-16.3Q188.1-15 187.1-13.2 186.1-11.4 185.8-9.4L185.8-9.4Q185.5-7.35 186.02-5.6 186.55-3.85 187.75-2.5L187.75-2.5Q188.85-1.15 190.52-0.4 192.2 0.35 194.25 0.35L194.25 0.35Q196.05 0.35 197.67-0.23 199.3-0.8 200.75-1.8ZM246.02-9.4L246.02-9.4Q245.72-7.35 246.24-5.6 246.77-3.85 247.92-2.5L247.92-2.5Q249.07-1.15 250.74-0.4 252.42 0.35 254.47 0.35L254.47 0.35Q256.52 0.35 258.44-0.4 260.37-1.15 261.92-2.5L261.92-2.5Q263.42-3.85 264.42-5.6 265.42-7.35 265.72-9.4L265.72-9.4Q266.02-11.4 265.49-13.2 264.97-15 263.82-16.35L263.82-16.35Q262.67-17.65 260.94-18.43 259.22-19.2 257.22-19.2L257.22-19.2Q255.12-19.2 253.24-18.43 251.37-17.65 249.82-16.35L249.82-16.35Q248.32-15 247.32-13.2 246.32-11.4 246.02-9.4ZM248.07-9.4L248.07-9.4Q248.27-11 249.07-12.4 249.87-13.8 251.07-14.9L251.07-14.9Q252.27-15.95 253.74-16.55 255.22-17.15 256.87-17.15L256.87-17.15Q258.47-17.15 259.82-16.55 261.17-15.95 262.07-14.9L262.07-14.9Q262.97-13.8 263.37-12.4 263.77-11 263.57-9.4L263.57-9.4Q263.32-7.75 262.52-6.35 261.72-4.95 260.52-3.95L260.52-3.95Q259.32-2.85 257.79-2.25 256.27-1.65 254.67-1.65L254.67-1.65Q253.07-1.65 251.74-2.25 250.42-2.85 249.52-3.95L249.52-3.95Q248.62-4.95 248.22-6.35 247.82-7.75 248.07-9.4ZM320.48-18.75L311.23-18.75 310.93-16.8 314.78-16.8Q316.43-12.25 318.13-7.8 319.83-3.35 321.53 1.15L321.53 1.15Q324.43-3.35 327.36-7.8 330.28-12.25 333.18-16.8L333.18-16.8 336.83-16.8 337.13-18.75 328.38-18.75 328.13-16.8 331.08-16.8Q328.68-13.15 326.36-9.55 324.03-5.95 322.03-2.6L322.03-2.6Q320.93-6.15 319.61-9.7 318.28-13.25 316.93-16.8L316.93-16.8 320.18-16.8 320.48-18.75ZM390.75-17.15L390.75-17.15Q392.65-17.15 394.1-16.07 395.55-15 396.2-13.3L396.2-13.3Q392.6-11.95 389.05-10.63 385.5-9.3 381.9-7.95L381.9-7.95Q381.8-9.7 382.45-11.35 383.1-13 384.35-14.3L384.35-14.3Q385.55-15.6 387.2-16.38 388.85-17.15 390.75-17.15ZM398.65-12.15L398.65-12.15Q398.4-13.65 397.77-14.93 397.15-16.2 396.2-17.1L396.2-17.1Q395.2-18.05 393.87-18.6 392.55-19.15 391.05-19.15L391.05-19.15Q388.95-19.15 387.07-18.38 385.2-17.6 383.7-16.3L383.7-16.3Q382.15-15 381.15-13.2 380.15-11.4 379.85-9.4L379.85-9.4Q379.55-7.35 380.07-5.6 380.6-3.85 381.8-2.5L381.8-2.5Q382.9-1.15 384.57-0.4 386.25 0.35 388.3 0.35L388.3 0.35Q390.25 0.35 391.97-0.35 393.7-1.05 395.2-2.25L395.2-2.25Q394.9-2.65 394.65-3.03 394.4-3.4 394.1-3.75L394.1-3.75Q393-2.8 391.55-2.23 390.1-1.65 388.55-1.65L388.55-1.65Q386.2-1.65 384.52-2.85 382.85-4.05 382.2-6L382.2-6Q386.35-7.6 390.42-9.1 394.5-10.6 398.65-12.15ZM445.31-1.95L441.41-1.95 441.16 0 450.81 0 451.06-1.95 447.36-1.95 448.51-10.25Q448.71-11.7 449.49-12.95 450.26-14.2 451.41-15.1L451.41-15.1Q452.56-16.05 454.04-16.57 455.51-17.1 457.06-17.1L457.06-17.1 457.46-19.15Q456.31-19.1 455.11-18.75 453.91-18.4 452.76-17.75L452.76-17.75Q451.61-17.05 450.61-16.07 449.61-15.1 448.86-13.9L448.86-13.9Q448.96-14.75 449.01-15.43 449.06-16.1 449.16-16.95L449.16-16.95 449.31-18.75 444.06-18.75 443.81-16.8 447.36-16.8 445.31-1.95ZM499.93-10.5L499.68-8.5 508.88-8.5 509.13-10.5 499.93-10.5ZM558.45-1.95L554.8-1.95 554.55 0 564.2 0 564.45-1.95 560.5-1.95 565.55-37.5 559.95-37.5 559.7-35.55 563.2-35.55 558.45-1.95ZM620.56-17.15L620.56-17.15Q622.46-17.15 623.91-16.07 625.36-15 626.01-13.3L626.01-13.3Q622.41-11.95 618.86-10.63 615.31-9.3 611.71-7.95L611.71-7.95Q611.61-9.7 612.26-11.35 612.91-13 614.16-14.3L614.16-14.3Q615.36-15.6 617.01-16.38 618.66-17.15 620.56-17.15ZM628.46-12.15L628.46-12.15Q628.21-13.65 627.59-14.93 626.96-16.2 626.01-17.1L626.01-17.1Q625.01-18.05 623.69-18.6 622.36-19.15 620.86-19.15L620.86-19.15Q618.76-19.15 616.89-18.38 615.01-17.6 613.51-16.3L613.51-16.3Q611.96-15 610.96-13.2 609.96-11.4 609.66-9.4L609.66-9.4Q609.36-7.35 609.89-5.6 610.41-3.85 611.61-2.5L611.61-2.5Q612.71-1.15 614.39-0.4 616.06 0.35 618.11 0.35L618.11 0.35Q620.06 0.35 621.79-0.35 623.51-1.05 625.01-2.25L625.01-2.25Q624.71-2.65 624.46-3.03 624.21-3.4 623.91-3.75L623.91-3.75Q622.81-2.8 621.36-2.23 619.91-1.65 618.36-1.65L618.36-1.65Q616.01-1.65 614.34-2.85 612.66-4.05 612.01-6L612.01-6Q616.16-7.6 620.24-9.1 624.31-10.6 628.46-12.15ZM672.33-9.4L672.33-9.4Q672.03-7.35 672.55-5.6 673.08-3.85 674.23-2.5L674.23-2.5Q675.38-1.15 677.05-0.4 678.73 0.35 680.83 0.35L680.83 0.35Q682.73 0.35 684.4-0.3 686.08-0.95 687.33-2L687.33-2Q688.08-2.55 688.63-3.15 689.18-3.75 689.48-4.35L689.48-4.35Q689.38-3.75 689.28-3.2 689.18-2.65 689.13-2.05L689.13-2.05 688.83 0 694.38 0 694.68-1.95 690.98-1.95 693.33-18.75 691.68-18.75Q691.48-17.65 691.25-16.55 691.03-15.45 690.88-14.35L690.88-14.35Q690.63-15.2 690-16.1 689.38-17 688.43-17.7L688.43-17.7Q687.48-18.35 686.25-18.75 685.03-19.15 683.53-19.15L683.53-19.15Q681.48-19.15 679.58-18.38 677.68-17.6 676.18-16.3L676.18-16.3Q674.63-14.95 673.63-13.15 672.63-11.35 672.33-9.4ZM674.38-9.4L674.38-9.4Q674.63-11 675.4-12.43 676.18-13.85 677.38-14.9L677.38-14.9Q678.58-15.95 680.08-16.55 681.58-17.15 683.23-17.15L683.23-17.15Q684.88-17.15 686.23-16.55 687.58-15.95 688.48-14.9L688.48-14.9Q689.38-13.85 689.78-12.43 690.18-11 689.98-9.4L689.98-9.4Q689.73-7.75 688.93-6.35 688.13-4.95 686.93-3.95L686.93-3.95Q685.73-2.85 684.2-2.25 682.68-1.65 681.08-1.65L681.08-1.65Q679.48-1.65 678.2-2.2 676.93-2.75 676.03-3.75L676.03-3.75Q675.03-4.8 674.6-6.25 674.18-7.7 674.38-9.4ZM742.65-1.95L738.75-1.95 738.5 0 748.15 0 748.4-1.95 744.7-1.95 745.85-10.25Q746.05-11.7 746.82-12.95 747.6-14.2 748.75-15.1L748.75-15.1Q749.9-16.05 751.37-16.57 752.85-17.1 754.4-17.1L754.4-17.1 754.8-19.15Q753.65-19.1 752.45-18.75 751.25-18.4 750.1-17.75L750.1-17.75Q748.95-17.05 747.95-16.07 746.95-15.1 746.2-13.9L746.2-13.9Q746.3-14.75 746.35-15.43 746.4-16.1 746.5-16.95L746.5-16.95 746.65-18.75 741.4-18.75 741.15-16.8 744.7-16.8 742.65-1.95ZM814.51-1.95L810.61-1.95 810.36 0 820.01 0 820.26-1.95 816.56-1.95 818.21-13.55Q818.46-16.05 817.06-17.6 815.66-19.15 812.91-19.15L812.91-19.15Q810.11-19.15 807.71-17.7 805.31-16.25 803.96-13.9L803.96-13.9Q804.06-14.75 804.11-15.43 804.16-16.1 804.26-16.95L804.26-16.95 804.41-18.75 799.16-18.75 798.91-16.8 802.46-16.8 800.41-1.95 796.51-1.95 796.26 0 805.91 0 806.16-1.95 802.46-1.95 803.61-10.25Q803.81-11.75 804.64-13 805.46-14.25 806.61-15.2L806.61-15.2Q807.81-16.1 809.29-16.6 810.76-17.1 812.26-17.1L812.26-17.1Q814.36-17 815.29-15.83 816.21-14.65 816.06-13L816.06-13 814.51-1.95ZM865.13-10.5L864.88-8.5 874.08-8.5 874.33-10.5 865.13-10.5ZM947.49-18.75L942.14-18.75Q941.94-17.65 941.72-16.55 941.49-15.45 941.34-14.35L941.34-14.35Q940.99-15.35 940.37-16.23 939.74-17.1 938.84-17.75L938.84-17.75Q937.89-18.4 936.69-18.78 935.49-19.15 933.99-19.15L933.99-19.15Q931.94-19.15 930.04-18.38 928.14-17.6 926.64-16.3L926.64-16.3Q925.09-14.95 924.09-13.15 923.09-11.35 922.79-9.4L922.79-9.4Q922.49-7.35 923.02-5.6 923.54-3.85 924.69-2.55L924.69-2.55Q925.84-1.2 927.52-0.43 929.19 0.35 931.29 0.35L931.29 0.35Q934.24 0.35 936.42-0.95 938.59-2.25 939.74-4.15L939.74-4.15Q939.64-3.55 939.54-3 939.44-2.45 939.34-1.85L939.34-1.85 938.89 1.6Q938.64 3.55 937.82 5.2 936.99 6.85 935.84 8L935.84 8Q934.64 9.2 933.09 9.8 931.54 10.4 929.99 10.4L929.99 10.4Q928.29 10.4 926.77 9.83 925.24 9.25 924.29 7.95L924.29 7.95 922.59 9.5Q923.74 11 925.67 11.75 927.59 12.5 930.04 12.5L930.04 12.5Q932.04 12.45 933.82 11.7 935.59 10.95 937.09 9.6L937.09 9.6Q938.54 8.2 939.54 6.2 940.54 4.2 940.89 1.7L940.89 1.7 943.49-16.8 947.24-16.8 947.49-18.75ZM924.84-9.4L924.84-9.4Q925.09-11 925.87-12.43 926.64-13.85 927.84-14.9L927.84-14.9Q929.04-15.95 930.54-16.55 932.04-17.15 933.69-17.15L933.69-17.15Q935.34-17.15 936.69-16.55 938.04-15.95 938.94-14.9L938.94-14.9Q939.84-13.85 940.24-12.43 940.64-11 940.44-9.4L940.44-9.4Q940.19-7.75 939.39-6.35 938.59-4.95 937.39-3.95L937.39-3.95Q936.19-2.85 934.69-2.25 933.19-1.65 931.54-1.65L931.54-1.65Q929.94-1.65 928.67-2.23 927.39-2.8 926.49-3.75L926.49-3.75Q925.49-4.8 925.07-6.25 924.64-7.7 924.84-9.4ZM991.41-1.95L987.51-1.95 987.26 0 996.91 0 997.16-1.95 993.46-1.95 994.61-10.25Q994.81-11.7 995.59-12.95 996.36-14.2 997.51-15.1L997.51-15.1Q998.66-16.05 1000.14-16.57 1001.61-17.1 1003.16-17.1L1003.16-17.1 1003.56-19.15Q1002.41-19.1 1001.21-18.75 1000.01-18.4 998.86-17.75L998.86-17.75Q997.71-17.05 996.71-16.07 995.71-15.1 994.96-13.9L994.96-13.9Q995.06-14.75 995.11-15.43 995.16-16.1 995.26-16.95L995.26-16.95 995.41-18.75 990.16-18.75 989.91-16.8 993.46-16.8 991.41-1.95ZM1046.43-9.4L1046.43-9.4Q1046.13-7.35 1046.65-5.6 1047.18-3.85 1048.33-2.5L1048.33-2.5Q1049.48-1.15 1051.15-0.4 1052.83 0.35 1054.88 0.35L1054.88 0.35Q1056.93 0.35 1058.85-0.4 1060.78-1.15 1062.33-2.5L1062.33-2.5Q1063.83-3.85 1064.83-5.6 1065.83-7.35 1066.13-9.4L1066.13-9.4Q1066.43-11.4 1065.9-13.2 1065.38-15 1064.23-16.35L1064.23-16.35Q1063.08-17.65 1061.35-18.43 1059.63-19.2 1057.63-19.2L1057.63-19.2Q1055.53-19.2 1053.65-18.43 1051.78-17.65 1050.23-16.35L1050.23-16.35Q1048.73-15 1047.73-13.2 1046.73-11.4 1046.43-9.4ZM1048.48-9.4L1048.48-9.4Q1048.68-11 1049.48-12.4 1050.28-13.8 1051.48-14.9L1051.48-14.9Q1052.68-15.95 1054.15-16.55 1055.63-17.15 1057.28-17.15L1057.28-17.15Q1058.88-17.15 1060.23-16.55 1061.58-15.95 1062.48-14.9L1062.48-14.9Q1063.38-13.8 1063.78-12.4 1064.18-11 1063.98-9.4L1063.98-9.4Q1063.73-7.75 1062.93-6.35 1062.13-4.95 1060.93-3.95L1060.93-3.95Q1059.73-2.85 1058.2-2.25 1056.68-1.65 1055.08-1.65L1055.08-1.65Q1053.48-1.65 1052.15-2.25 1050.83-2.85 1049.93-3.95L1049.93-3.95Q1049.03-4.95 1048.63-6.35 1048.23-7.75 1048.48-9.4ZM1150.54-18.75L1142.14-18.75 1141.84-16.8 1144.79-16.8Q1142.49-13.2 1140.27-9.7 1138.04-6.2 1135.94-2.6L1135.94-2.6Q1134.79-6.15 1133.52-9.68 1132.24-13.2 1130.99-16.8L1130.99-16.8 1134.29-16.8 1134.54-18.75 1125.34-18.75 1125.04-16.8 1128.69-16.8 1129.79-13.8Q1127.89-11.1 1125.92-8.1 1123.94-5.1 1122.34-2.6L1122.34-2.6Q1121.19-6.15 1119.92-9.68 1118.64-13.2 1117.39-16.8L1117.39-16.8 1120.29-16.8 1120.59-18.75 1111.64-18.75 1111.34-16.8 1115.29-16.8Q1116.89-12.25 1118.52-7.8 1120.14-3.35 1121.79 1.15L1121.79 1.15 1130.54-12.2 1135.39 1.15Q1138.24-3.35 1141.09-7.8 1143.94-12.25 1146.84-16.8L1146.84-16.8 1150.29-16.8 1150.54-18.75Z" opacity="1" transform="matrix(1,0,0,1,0,0)" fill="#000000" class="slogan-text-1" data-fill-palette-color="secondary" id="text-1"></path></svg></g></svg></g></svg></g></svg></g><g><svg viewBox="0 0 71.37459804623236 71.37459804623235" height="71.37459804623235" width="71.37459804623236"><g><svg></svg></g><g id="icon-0"><svg viewBox="0 0 71.37459804623236 71.37459804623235" height="71.37459804623235" width="71.37459804623236"><g><path transform="scale(0.71375,0.71375)" d="M30 100c-16.569 0-30-13.431-30-30v-40c0-16.569 13.431-30 30-30h40c16.569 0 30 13.431 30 30v40c0 16.569-13.431 30-30 30z" fill="#002f81" fill-rule="nonzero" stroke="none" stroke-width="1" stroke-linecap="butt" stroke-linejoin="miter" stroke-miterlimit="10" stroke-dasharray="" stroke-dashoffset="0" font-family="none" font-weight="none" font-size="none" text-anchor="none" style="mix-blend-mode: normal" data-fill-palette-color="accent"></path></g><g transform="matrix(1,0,0,1,14.274919609246478,25.420776605715503)"><svg viewBox="0 0 42.82475882773941 20.53304483480135" height="20.53304483480135" width="42.82475882773941"><g><svg xmlns="http://www.w3.org/2000/svg" xmlns:xlink="http://www.w3.org/1999/xlink" xmlns:a="http://ns.adobe.com/AdobeSVGViewerExtensions/3.0/" version="1.1" x="0" y="0" viewBox="0 0 97.42699999999999 46.713" enable-background="new -1.286 -24.917 100 100" xml:space="preserve" height="20.53304483480135" width="42.82475882773941" class="icon-cg-0" data-fill-palette-color="quaternary" id="cg-0"><path d="M35.03 35.148c-7.732-3.146-11.661-3.487-15.821-3.848-4.101-0.354-8.347-0.729-16.382-3.95-0.597 0.901-1.09 2.651-1.487 4.772 8.261 2.153 12.443 1.988 16.477 1.821 4.081-0.168 8.298-0.341 16.548 1.847 2.792 0.741 4.966 1.47 6.695 2.176C39.524 37.117 37.569 36.181 35.03 35.148z" fill="#0093fb" data-fill-palette-color="quaternary"></path><path d="M34.048 37.982c-8.068-2.141-12.008-1.98-16.182-1.808-4.11 0.17-8.367 0.338-16.739-1.835-0.27 1.654-0.488 3.445-0.661 5.174 8.167 0.969 12.216 0.268 16.122-0.416 4.021-0.703 8.179-1.43 16.647-0.348 3.312 0.424 5.807 0.94 7.732 1.5C39.258 39.53 37.023 38.771 34.048 37.982z" fill="#0093fb" data-fill-palette-color="quaternary"></path><path d="M16.801 41.31c-3.991 0.697-8.125 1.412-16.451 0.43C0.18 43.635 0.063 45.386 0 46.685c8.365-0.059 12.312-1.281 16.133-2.465 3.901-1.208 7.934-2.457 16.469-2.457 2.886 0 5.174 0.146 7.025 0.387-1.702-0.43-3.83-0.831-6.547-1.178C24.8 39.912 20.914 40.591 16.801 41.31z" fill="#0093fb" data-fill-palette-color="quaternary"></path><path d="M79.611 33.969c4.043 0.165 8.232 0.333 16.533-1.835-0.41-2.307-0.904-4.096-1.479-4.783-8.078 3.246-12.334 3.619-16.447 3.975-4.16 0.361-8.09 0.7-15.822 3.849-2.539 1.034-4.496 1.97-6.031 2.821 1.729-0.707 3.904-1.438 6.699-2.178C71.312 33.628 75.531 33.802 79.611 33.969z" fill="#0093fb" data-fill-palette-color="quaternary"></path><path d="M94.041 25.278L85.287 0c-6.336 2.515-9.715 2.807-12.984 3.09-3.342 0.289-6.498 0.562-12.707 3.089-8.611 3.506-9.078 5.696-9.328 6.873-0.121 0.565-0.264 1.197-1.038 1.609v28.725c0.004-0.006 0.012-0.012 0.017-0.02 0.036-0.052 0.068-0.115 0.1-0.184 0.065-0.158 0.114-0.348 0.174-0.625 0.39-1.831 1.042-4.896 12.414-9.523 7.904-3.22 12.111-3.583 16.18-3.936C82.107 28.753 86.234 28.397 94.041 25.278z" fill="#0093fb" data-fill-palette-color="quaternary"></path><path d="M80.837 39.123c3.91 0.684 7.961 1.383 16.141 0.414-0.172-1.79-0.383-3.569-0.633-5.184-8.398 2.184-12.664 2.017-16.785 1.846-4.174-0.171-8.113-0.332-16.182 1.809-2.975 0.79-5.209 1.549-6.922 2.27 1.926-0.56 4.422-1.076 7.734-1.5C72.656 37.693 76.818 38.42 80.837 39.123z" fill="#0093fb" data-fill-palette-color="quaternary"></path><path d="M81.294 44.247c3.82 1.183 7.768 2.406 16.133 2.466-0.072-1.51-0.188-3.213-0.336-4.948-8.334 0.985-12.473 0.269-16.465-0.429-4.113-0.719-7.998-1.397-16.279-0.338-2.715 0.348-4.844 0.75-6.545 1.178 1.85-0.238 4.137-0.387 7.023-0.387C73.361 41.789 77.394 43.039 81.294 44.247z" fill="#0093fb" data-fill-palette-color="quaternary"></path><path d="M47.907 42.533c0.033 0.154 0.061 0.279 0.091 0.394V14.662c-0.774-0.412-0.917-1.044-1.037-1.609-0.251-1.177-0.717-3.367-9.329-6.873-6.209-2.527-9.365-2.8-12.706-3.089-3.27-0.283-6.647-0.576-12.981-3.089L3.382 25.25c7.81 3.121 11.938 3.479 15.933 3.824 4.068 0.353 8.274 0.717 16.179 3.934C46.866 37.636 47.518 40.702 47.907 42.533z" fill="#0093fb" data-fill-palette-color="quaternary"></path></svg></g></svg></g></svg></g></svg></g></svg></g><defs></defs></svg><rect width="395.52" height="59.623729162210495" fill="none" stroke="none" visibility="hidden"></rect></g></svg></g></svg>